# xmcd CD database file
#
# Track frame offsets:
#	150
#	14933
#	31829
#	47930
#	64363
#	80653
#	96143
#	110741
#	127710
#	141552
#	158129
#	174579
#	191287
#	203795
#	219406
#	232822
#	248093
#	262031
#	279769
#	306002
#
# Disc length: 4291 seconds
#
# Revision: 3
# Processed by: cddbd v1.5.1PL2 Copyright (c) Steve Scherf et al.
# Submitted via: CDex 1.70beta2
#
DISCID=1d10c114
DTITLE=Various Artist - Dance Max 2004-03 CD1
DYEAR=2004
DGENRE=New Age
TTITLE0=Scooter - Shake That (Radio Edit)
TTITLE1=Danzel - Pump It Up (Radio Edit)
TTITLE2=Novaspace - Dancing with Tears in My Eyes (Radio Edit)
TTITLE3=Starsplash - Hardstyle My Style (Radio Mix)
TTITLE4=Boom Boxx Feat. Linda O. - Balla Da Li (Radio Mix)
TTITLE5=Robert Natus and Arkus P. - Hardcore Salsa
TTITLE6=Bellini and Mendonca Do Rio - Magelenha (Radio Mix)
TTITLE7=Pulsedriver - Slammin (Single Mix)
TTITLE8=Commander Tom - Attention (Original Radio Mix)
TTITLE9=Brooklyn Bounce - Crazy
TTITLE10=Klubbingman - Magic Summer Night (Radio Edit Long)
TTITLE11=Anaconda - Sound Of Love(Pa Pa Pa) (Video Mix)
TTITLE12=Paps'n Skar - Mirage (Dance Mix)
TTITLE13=Belushi - My First Love
TTITLE14=Special D. - You
TTITLE15=Simon - Dreams
TTITLE16=Narcotic Thrust - I Like It
TTITLE17=Marc Korn - Summer Of Love (Mysterio Radio Cut)
TTITLE18=Boogie Pimps - Make Em Drop
TTITLE19=Despina Vandi - Opa Opa (Bass Bumpers Club Mix)
EXTD=YEAR: 2004
EXTT0=
EXTT1=
EXTT2=
EXTT3=
EXTT4=
EXTT5=
EXTT6=
EXTT7=
EXTT8=
EXTT9=
EXTT10=
EXTT11=
EXTT12=
EXTT13=
EXTT14=
EXTT15=
EXTT16=
EXTT17=
EXTT18=
EXTT19=
PLAYORDER=
